<?xml version="1.0" encoding="UTF-8"?>
<svg xmlns="http://www.w3.org/2000/svg" viewBox="0 0 512 512" width="512" height="512">
  
  <defs>
    <filter id="ma" x="-80%" y="-80%" width="260%" height="260%">
      <feGaussianBlur stdDeviation="3" result="b"/>
      <feMerge><feMergeNode in="b"/><feMergeNode in="SourceGraphic"/></feMerge>
    </filter>
    <filter id="mb" x="-80%" y="-80%" width="260%" height="260%">
      <feGaussianBlur stdDeviation="4.5" result="b"/>
      <feMerge><feMergeNode in="b"/><feMergeNode in="SourceGraphic"/></feMerge>
    </filter></defs>
  <g transform="translate(256.0,230.4) scale(5.12) rotate(10)">
    
    <line x1="-32" y1="-15" x2="-9" y2="-15" stroke="#D4C1FF" stroke-width="1.6" opacity="0.55" stroke-linecap="round"/>
    <line x1="-9" y1="-15" x2="6" y2="-4" stroke="#D4C1FF" stroke-width="1.6" opacity="0.55" stroke-linecap="round"/>
    <line x1="6" y1="-4" x2="18" y2="2" stroke="#D4C1FF" stroke-width="1.5" opacity="0.55" stroke-linecap="round"/>
    <line x1="18" y1="2" x2="6" y2="-4" stroke="#D4C1FF" stroke-width="0.7" opacity="0.12" stroke-linecap="round"/>
    <line x1="6" y1="-4" x2="-5" y2="6" stroke="#D4C1FF" stroke-width="1.4" opacity="0.45" stroke-linecap="round"/>
    <line x1="6" y1="-4" x2="0" y2="18" stroke="#D4C1FF" stroke-width="1.5" opacity="0.55" stroke-linecap="round"/>
    <line x1="18" y1="2" x2="24" y2="-8" stroke="#D4C1FF" stroke-width="1.1" opacity="0.38" stroke-linecap="round"/>
    <line x1="-32" y1="-15" x2="6" y2="-4" stroke="#D4C1FF" stroke-width="0.9" opacity="0.15" stroke-linecap="round"/>
    <line x1="-9" y1="-15" x2="-5" y2="6" stroke="#D4C1FF" stroke-width="0.8" opacity="0.12" stroke-linecap="round"/>
    <circle cx="-32" cy="-15" r="6" fill="#9B7FD4" filter="url(#mb)"/>
    <circle cx="-32" cy="-15" r="2.4" fill="#A98BE0" opacity="0.48"/>
    <circle cx="-9" cy="-15" r="4" fill="#4BB8E0" filter="url(#ma)"/>
    <circle cx="-9" cy="-15" r="1.6" fill="white" opacity="0.31"/>
    <circle cx="6" cy="-4" r="5.4" fill="#9B7FD4" filter="url(#mb)"/>
    <circle cx="6" cy="-4" r="2.2" fill="#D4C1FF" opacity="0.48"/>
    <circle cx="18" cy="2" r="4" fill="#4BB8E0" filter="url(#ma)"/>
    <circle cx="18" cy="2" r="1.5" fill="white" opacity="0.28"/>
    <circle cx="-5" cy="6" r="3.5" fill="#4BB8E0" filter="url(#ma)"/>
    <circle cx="-5" cy="6" r="1.3" fill="white" opacity="0.26"/>
    <circle cx="0" cy="18" r="5" fill="#FF7B8A" filter="url(#ma)"/>
    <circle cx="0" cy="18" r="2" fill="white" opacity="0.3"/>
    <circle cx="24" cy="-8" r="3" fill="#D4C1FF"/>
    <circle cx="-36" cy="-21" r="0.8" fill="#D4C1FF" opacity="0.44"/>
    <circle cx="28" cy="-12" r="0.5" fill="#D4C1FF" opacity="0.25"/>
    <circle cx="-3" cy="24" r="0.5" fill="#FF7B8A" opacity="0.22"/>
  </g>
</svg>